<svg width="12" height="10" viewBox="0 0 12 10" fill="none" xmlns="http://www.w3.org/2000/svg">
<path opacity="0.5" d="M2 0C1.46957 0 0.960859 0.210714 0.585786 0.585786C0.210714 0.960859 0 1.46957 0 2V2.201L6 5.432L12 2.202V2C12 1.46957 11.7893 0.960859 11.4142 0.585786C11.0391 0.210714 10.5304 0 10 0H2Z" fill="black"/>
<path opacity="0.5" d="M12 3.33704L6.237 6.44004C6.16416 6.47925 6.08273 6.49977 6 6.49977C5.91727 6.49977 5.83584 6.47925 5.763 6.44004L0 3.33704V8.00004C0 8.53047 0.210714 9.03918 0.585786 9.41425C0.960859 9.78932 1.46957 10 2 10H10C10.5304 10 11.0391 9.78932 11.4142 9.41425C11.7893 9.03918 12 8.53047 12 8.00004V3.33704Z" fill="black"/>
</svg>
